# xmcd
#
# Track frame offsets: 
#        150
#        17154
#        35084
#        53596
#        69737
#        84477
#        101733
#        119462
#        131594
#        149659
#        166520
#        185305
#
# Disc length: 2698 seconds
#
# Revision: 0
# Processed by: cddbd v1.5.2PL0 Copyright (c) Steve Scherf et al.
# Submitted via: ExactAudioCopy v0.95b3
#
DISCID=a50a880c
DTITLE=Jintara - Jin Ma Laeo Ja 1
DYEAR=1900
DGENRE=Mor lam
TTITLE0=Chang bao jaochu
TTITLE1=Si long boeng
TTITLE2=Khao mi faen mai
TTITLE3=Taxi mia ploe
TTITLE4=Pat to khon law
TTITLE5=Khon Pu Gradueng dueng jai
TTITLE6=Khit hawt pu lang khon
TTITLE7=Hua-ok chaona
TTITLE8=Pichai ti saen di
TTITLE9=Pu yu bueanglang
TTITLE10=Long yuea malai
TTITLE11=Faen ja Jin ma laew ja
EXTD=
EXTT0=
EXTT1=
EXTT2=
EXTT3=
EXTT4=
EXTT5=
EXTT6=
EXTT7=
EXTT8=
EXTT9=
EXTT10=
EXTT11=
PLAYORDER=
